<svg width="77" height="77" viewBox="0 0 77 77" fill="none" xmlns="http://www.w3.org/2000/svg">
<path d="M76.5 38.5C76.5 59.4868 59.4868 76.5 38.5 76.5C17.5132 76.5 0.5 59.4868 0.5 38.5C0.5 17.5132 17.5132 0.5 38.5 0.5C59.4868 0.5 76.5 17.5132 76.5 38.5Z" stroke="#C299FC"/>
<path d="M42.2777 22.8148C42.2777 24.9012 40.5864 26.5926 38.4999 26.5926C36.4135 26.5926 34.7222 24.9012 34.7222 22.8148C34.7222 20.7284 36.4135 19.037 38.4999 19.037C40.5864 19.037 42.2777 20.7284 42.2777 22.8148Z" stroke="#C299FC"/>
<path d="M36.1387 59.6019V33.0834C36.1387 32.5311 36.5864 32.0834 37.1387 32.0834H39.9138C40.4661 32.0834 40.9138 32.5311 40.9138 33.0834V59.6019C40.9138 60.1542 40.4661 60.6019 39.9138 60.6019H37.1387C36.5864 60.6019 36.1387 60.1542 36.1387 59.6019Z" stroke="#C299FC" stroke-width="0.5"/>
</svg>
