<svg width="38" height="39" viewBox="0 0 38 39" fill="none" xmlns="http://www.w3.org/2000/svg">
<circle cx="25.3907" cy="5.48438" r="4.98438" stroke="#C299FC"/>
<mask id="path-2-inside-1" fill="white">
<path d="M17.8658 26.6094C15.1785 26.6094 12.9149 24.3504 13.9432 21.8677C14.5659 20.3644 15.4786 18.9985 16.6292 17.8479C17.7798 16.6973 19.1457 15.7846 20.649 15.1619C22.1523 14.5392 23.7635 14.2187 25.3907 14.2187C27.0178 14.2187 28.6291 14.5392 30.1324 15.1619C31.6357 15.7846 33.0016 16.6973 34.1522 17.8479C35.3028 18.9985 36.2154 20.3644 36.8381 21.8677C37.8665 24.3504 35.6028 26.6094 32.9156 26.6094L25.3907 26.6094L17.8658 26.6094Z"/>
</mask>
<path d="M17.8658 26.6094C15.1785 26.6094 12.9149 24.3504 13.9432 21.8677C14.5659 20.3644 15.4786 18.9985 16.6292 17.8479C17.7798 16.6973 19.1457 15.7846 20.649 15.1619C22.1523 14.5392 23.7635 14.2187 25.3907 14.2187C27.0178 14.2187 28.6291 14.5392 30.1324 15.1619C31.6357 15.7846 33.0016 16.6973 34.1522 17.8479C35.3028 18.9985 36.2154 20.3644 36.8381 21.8677C37.8665 24.3504 35.6028 26.6094 32.9156 26.6094L25.3907 26.6094L17.8658 26.6094Z" stroke="#C299FC" stroke-width="2" mask="url(#path-2-inside-1)"/>
<line x1="9.15625" y1="2" x2="9.15625" y2="19.3125" stroke="#C299FC"/>
<line x1="17.3125" y1="11.1562" x2="-4.37114e-08" y2="11.1562" stroke="#C299FC"/>
</svg>
