<svg width="211" height="198" viewBox="0 0 211 198" fill="none" xmlns="http://www.w3.org/2000/svg">
<path d="M151.318 25.0594C151.318 38.6183 140.212 49.6187 126.5 49.6187C112.789 49.6187 101.682 38.6183 101.682 25.0594C101.682 11.5004 112.789 0.5 126.5 0.5C140.212 0.5 151.318 11.5004 151.318 25.0594Z" fill="#181825" stroke="#C299FC"/>
<mask id="path-2-inside-1" fill="white">
<path d="M74.3001 121.584C71.5387 121.584 69.2769 119.341 69.523 116.591C70.035 110.868 71.4252 105.245 73.6542 99.9185C76.5287 93.0495 80.7421 86.8083 86.0536 81.551C91.3651 76.2938 97.6708 72.1235 104.611 69.2783C111.55 66.4331 118.988 64.9687 126.5 64.9687C134.012 64.9687 141.45 66.4331 148.39 69.2783C155.329 72.1235 161.635 76.2938 166.947 81.551C172.258 86.8083 176.471 93.0495 179.346 99.9185C181.575 105.245 182.965 110.868 183.477 116.591C183.723 119.341 181.462 121.584 178.7 121.584L126.5 121.584L74.3001 121.584Z"/>
</mask>
<path d="M74.3001 121.584C71.5387 121.584 69.2769 119.341 69.523 116.591C70.035 110.868 71.4252 105.245 73.6542 99.9185C76.5287 93.0495 80.7421 86.8083 86.0536 81.551C91.3651 76.2938 97.6708 72.1235 104.611 69.2783C111.55 66.4331 118.988 64.9687 126.5 64.9687C134.012 64.9687 141.45 66.4331 148.39 69.2783C155.329 72.1235 161.635 76.2938 166.947 81.551C172.258 86.8083 176.471 93.0495 179.346 99.9185C181.575 105.245 182.965 110.868 183.477 116.591C183.723 119.341 181.462 121.584 178.7 121.584L126.5 121.584L74.3001 121.584Z" fill="#181825" stroke="#C299FC" stroke-width="2" mask="url(#path-2-inside-1)"/>
<path d="M81.2246 44.8594C81.2246 58.4229 70.2225 69.4188 56.65 69.4188C43.0776 69.4188 32.0754 58.4229 32.0754 44.8594C32.0754 31.2959 43.0776 20.3 56.65 20.3C70.2225 20.3 81.2246 31.2959 81.2246 44.8594Z" fill="#181825" stroke="#C299FC"/>
<mask id="path-4-inside-2" fill="white">
<path d="M5.00005 141.384C2.23863 141.384 -0.0228709 139.141 0.220836 136.391C0.72792 130.668 2.10474 125.045 4.31228 119.719C7.15921 112.85 11.332 106.608 16.5925 101.351C21.8529 96.0938 28.098 91.9236 34.971 89.0784C41.8441 86.2332 49.2107 84.7687 56.6501 84.7687C64.0894 84.7687 71.456 86.2332 78.3291 89.0784C85.2022 91.9236 91.4472 96.0938 96.7077 101.351C101.968 106.608 106.141 112.85 108.988 119.719C111.195 125.045 112.572 130.668 113.079 136.391C113.323 139.141 111.061 141.384 108.3 141.384L56.6501 141.384L5.00005 141.384Z"/>
</mask>
<path d="M5.00005 141.384C2.23863 141.384 -0.0228709 139.141 0.220836 136.391C0.72792 130.668 2.10474 125.045 4.31228 119.719C7.15921 112.85 11.332 106.608 16.5925 101.351C21.8529 96.0938 28.098 91.9236 34.971 89.0784C41.8441 86.2332 49.2107 84.7687 56.6501 84.7687C64.0894 84.7687 71.456 86.2332 78.3291 89.0784C85.2022 91.9236 91.4472 96.0938 96.7077 101.351C101.968 106.608 106.141 112.85 108.988 119.719C111.195 125.045 112.572 130.668 113.079 136.391C113.323 139.141 111.061 141.384 108.3 141.384L56.6501 141.384L5.00005 141.384Z" fill="#181825" stroke="#C299FC" stroke-width="2" mask="url(#path-4-inside-2)"/>
<circle cx="172.15" cy="120.45" r="37.45" fill="#181825" stroke="#C299FC"/>
<line x1="173.372" y1="99" x2="173.372" y2="141.144" stroke="#C299FC"/>
<line x1="193.944" y1="120.572" x2="151.8" y2="120.572" stroke="#C299FC"/>
</svg>
