<svg width="77" height="78" viewBox="0 0 77 78" fill="none" xmlns="http://www.w3.org/2000/svg">
<path d="M8.5 1H68.5C72.6438 1 76 4.35625 76 8.5V53.5C76 57.6438 72.6438 61 68.5 61H16L1 76V8.5C1 4.35625 4.35625 1 8.5 1ZM16 46H61V38.5H16V46ZM16 34.75H61V27.25H38.5H16V34.75ZM16 23.5H38.5H61V16H16V23.5Z" fill="#181825"/>
<path d="M61 23.5V16H16V23.5H38.5H61Z" fill="#181825"/>
<path d="M16 34.75H61V27.25H38.5H16V34.75Z" fill="#181825"/>
<path d="M16 46H61V38.5H16V46Z" fill="#181825"/>
<path d="M8.5 1H68.5C72.6438 1 76 4.35625 76 8.5V53.5C76 57.6438 72.6438 61 68.5 61H16L1 76V8.5C1 4.35625 4.35625 1 8.5 1ZM16 46H61V38.5H16V46ZM16 34.75H61V27.25H38.5H16V34.75ZM16 23.5H38.5H61V16H16V23.5Z" stroke="#C299FC"/>
<path d="M61 23.5V16H16V23.5H38.5H61Z" stroke="#C299FC"/>
<path d="M16 34.75H61V27.25H38.5H16V34.75Z" stroke="#C299FC"/>
<path d="M16 46H61V38.5H16V46Z" stroke="#C299FC"/>
</svg>
