<svg width="41" height="65" viewBox="0 0 41 65" fill="none" xmlns="http://www.w3.org/2000/svg">
<path d="M29.0738 9.14062C29.0738 13.9162 25.2317 17.7812 20.5 17.7812C15.7683 17.7812 11.9263 13.9162 11.9263 9.14062C11.9263 4.36507 15.7683 0.5 20.5 0.5C25.2317 0.5 29.0738 4.36507 29.0738 9.14062Z" stroke="#C299FC"/>
<mask id="path-2-inside-1" fill="white">
<path d="M5.00001 44.349C2.23858 44.349 -0.0594847 42.0789 0.598119 39.397C0.844358 38.3927 1.16571 37.4062 1.56048 36.4461C2.5907 33.9406 4.10072 31.6641 6.00432 29.7465C7.90792 27.8288 10.1678 26.3077 12.655 25.2699C15.1422 24.2321 17.8079 23.6979 20.5 23.6979C23.1921 23.6979 25.8578 24.2321 28.345 25.2699C30.8322 26.3077 33.0921 27.8288 34.9957 29.7465C36.8993 31.6641 38.4093 33.9406 39.4395 36.4461C39.8343 37.4062 40.1557 38.3927 40.4019 39.397C41.0595 42.0789 38.7614 44.349 36 44.349L20.5 44.349L5.00001 44.349Z"/>
</mask>
<path d="M5.00001 44.349C2.23858 44.349 -0.0594847 42.0789 0.598119 39.397C0.844358 38.3927 1.16571 37.4062 1.56048 36.4461C2.5907 33.9406 4.10072 31.6641 6.00432 29.7465C7.90792 27.8288 10.1678 26.3077 12.655 25.2699C15.1422 24.2321 17.8079 23.6979 20.5 23.6979C23.1921 23.6979 25.8578 24.2321 28.345 25.2699C30.8322 26.3077 33.0921 27.8288 34.9957 29.7465C36.8993 31.6641 38.4093 33.9406 39.4395 36.4461C39.8343 37.4062 40.1557 38.3927 40.4019 39.397C41.0595 42.0789 38.7614 44.349 36 44.349L20.5 44.349L5.00001 44.349Z" stroke="#C299FC" stroke-width="2" mask="url(#path-2-inside-1)"/>
</svg>
