<svg width="90" height="91" viewBox="0 0 90 91" fill="none" xmlns="http://www.w3.org/2000/svg">
<path d="M4.17433 57.3389V58.0889H4.92433H19.2183V67.8439V70.1782V71.7626H7.25892C3.81023 71.7626 1.00562 68.958 1.00562 65.5093V7.14872C1.00562 3.70098 3.81028 0.895508 7.25892 0.895508H82.9977C86.4452 0.895508 89.251 3.70213 89.251 7.14872V65.5093C89.251 68.9579 86.4453 71.7626 82.9977 71.7626H57.0637V70.1782V67.8439V58.0889H85.332H86.082V57.3389V7.14872C86.082 5.44799 84.7003 4.06424 82.9977 4.06424H7.25892C5.55502 4.06424 4.17433 5.44813 4.17433 7.14872V57.3389Z" fill="#C299FC" stroke="#181825" stroke-width="1.5"/>
<path d="M36.3515 87.3863L36.3515 87.3863C35.2773 86.9759 34.5378 85.9029 34.5378 84.6682C34.5378 83.7827 34.9211 82.9929 35.5183 82.4602L35.5193 82.4594C35.6436 82.3489 35.7755 82.2512 35.9157 82.1648L35.9195 82.1624C36.3089 81.9257 36.7716 81.7707 37.2805 81.7707C37.3669 81.7707 37.4401 81.78 37.4841 81.7862C37.5182 81.791 37.5314 81.7931 37.5393 81.7943C37.5454 81.7953 37.5484 81.7957 37.5556 81.7965L37.5561 81.7965C38.1217 81.8569 38.6287 82.0936 39.0351 82.4537C39.0358 82.4543 39.0366 82.4549 39.0374 82.4556C39.0575 82.4724 39.1232 82.5274 39.1759 82.5805L39.1787 82.5832C39.6978 83.1117 40.0245 83.8512 40.0227 84.6699M36.3515 87.3863L37.8822 86.7039C38.2789 86.5672 38.6185 86.3072 38.8647 85.9584L39.4774 86.391C39.4774 86.3909 39.4775 86.3909 39.4775 86.3908C39.8173 85.9096 40.0224 85.3156 40.0227 84.6699M36.3515 87.3863L36.358 87.3887C36.6234 87.4874 36.9339 87.5657 37.2805 87.5657C37.6005 87.5657 37.8868 87.4966 38.1284 87.4124L36.3515 87.3863ZM40.0227 84.6699L39.2727 84.6682H40.0227C40.0227 84.6687 40.0227 84.6693 40.0227 84.6699ZM49.9607 41.0635L49.9623 41.0644C51.1265 41.6868 51.9003 42.8643 51.9003 44.3195V57.3413V67.8461V70.1807V72.515V78.351V79.5183V85.3555C51.9003 86.5306 51.3902 87.5754 50.5838 88.2972C49.9091 88.9008 49.0418 89.2731 48.0724 89.2731H42.2912H38.9971H26.9704C24.8165 89.2731 23.0526 87.5094 23.0526 85.3555V72.515V70.1807V67.8461V57.3413V44.3206C23.0526 42.9021 23.8309 41.7321 24.9961 41.0956C25.5869 40.774 26.2554 40.583 26.9704 40.583H36.3092H37.4765H38.6436H43.3126H44.4799H48.0724C48.7647 40.583 49.4002 40.7621 49.9607 41.0635ZM47.9813 80.266H48.7313V79.516V78.3487V72.5127V70.1783V67.844V57.339V44.4997V43.7497H47.9813H44.4799H43.3126H38.6436H37.4765H36.3092H26.9716H26.2216V44.4997V57.339V67.844V70.1783V72.5127V79.516V80.266H26.9716H36.3092H37.4765H38.6436H43.3126H47.9813Z" fill="#C299FC" stroke="#181825" stroke-width="1.5"/>
</svg>
