<svg width="61" height="61" viewBox="0 0 61 61" fill="none" xmlns="http://www.w3.org/2000/svg">
<path d="M12.0938 33.3438L11.3866 34.0509L12.0938 33.3438ZM33.3438 12.0938L32.6366 12.8009L33.3438 12.0938ZM42.7188 37.7188L43.4259 37.0116L43.133 36.7188H42.7188V37.7188ZM59.2812 54.2812L59.9884 54.9884L60.6955 54.2812L59.9884 53.5741L59.2812 54.2812ZM54.2812 59.2812L53.5741 59.9884L54.2812 60.6955L54.9884 59.9884L54.2812 59.2812ZM37.7188 42.7188H36.7188V43.133L37.0116 43.4259L37.7188 42.7188ZM37.7188 40.0625H38.7188V39.6483L38.4259 39.3554L37.7188 40.0625ZM36.7812 39.125L37.4884 38.4179L36.8293 37.7588L36.1256 38.37L36.7812 39.125ZM7.25 38.0312L6.54284 38.7384L6.55168 38.747L7.25 38.0312ZM7.25 7.40625L6.54289 6.69914L7.25 7.40625ZM38.0312 7.40625L37.3154 8.10463L37.3241 8.11336L38.0312 7.40625ZM42.7188 30.2188L43.6522 30.5778L43.6565 30.5661L42.7188 30.2188ZM39.125 36.7812L38.3489 36.1507L37.7802 36.8506L38.4179 37.4884L39.125 36.7812ZM40.0625 37.7188L39.3554 38.4259L39.6483 38.7188H40.0625V37.7188ZM11.3866 34.0509C14.493 37.1572 18.2899 38.7188 22.7188 38.7188V36.7188C18.8143 36.7188 15.5279 35.3636 12.8009 32.6366L11.3866 34.0509ZM22.7188 38.7188C27.1476 38.7188 30.9445 37.1572 34.0509 34.0509L32.6366 32.6366C29.9096 35.3636 26.6232 36.7188 22.7188 36.7188V38.7188ZM34.0509 34.0509C37.1572 30.9445 38.7188 27.1476 38.7188 22.7188H36.7188C36.7188 26.6232 35.3636 29.9096 32.6366 32.6366L34.0509 34.0509ZM38.7188 22.7188C38.7188 18.2899 37.1572 14.493 34.0509 11.3866L32.6366 12.8009C35.3636 15.5279 36.7188 18.8143 36.7188 22.7188H38.7188ZM34.0509 11.3866C30.9445 8.28031 27.1476 6.71875 22.7188 6.71875V8.71875C26.6232 8.71875 29.9096 10.0739 32.6366 12.8009L34.0509 11.3866ZM22.7188 6.71875C18.2899 6.71875 14.493 8.28031 11.3866 11.3866L12.8009 12.8009C15.5279 10.0739 18.8143 8.71875 22.7188 8.71875V6.71875ZM11.3866 11.3866C8.28031 14.493 6.71875 18.2899 6.71875 22.7188H8.71875C8.71875 18.8143 10.0739 15.5279 12.8009 12.8009L11.3866 11.3866ZM6.71875 22.7188C6.71875 27.1476 8.28031 30.9445 11.3866 34.0509L12.8009 32.6366C10.0739 29.9096 8.71875 26.6232 8.71875 22.7188H6.71875ZM42.0116 38.4259L58.5741 54.9884L59.9884 53.5741L43.4259 37.0116L42.0116 38.4259ZM58.5741 53.5741L53.5741 58.5741L54.9884 59.9884L59.9884 54.9884L58.5741 53.5741ZM54.9884 58.5741L38.4259 42.0116L37.0116 43.4259L53.5741 59.9884L54.9884 58.5741ZM38.7188 42.7188V40.0625H36.7188V42.7188H38.7188ZM38.4259 39.3554L37.4884 38.4179L36.0741 39.8321L37.0116 40.7696L38.4259 39.3554ZM36.1256 38.37C32.3556 41.6438 27.9032 43.2812 22.7188 43.2812V45.2812C28.3676 45.2812 33.2902 43.4812 37.4369 39.88L36.1256 38.37ZM22.7188 43.2812C16.9344 43.2812 12.0298 41.2974 7.94832 37.3155L6.55168 38.747C11.0119 43.0985 16.4198 45.2812 22.7188 45.2812V43.2812ZM7.95711 37.3241C3.98322 33.3503 2 28.5027 2 22.7188H0C0 29.0181 2.18344 34.3789 6.54289 38.7384L7.95711 37.3241ZM2 22.7188C2 16.9348 3.98322 12.0872 7.95711 8.11336L6.54289 6.69914C2.18344 11.0586 0 16.4194 0 22.7188H2ZM7.95711 8.11336C12.0403 4.03012 16.9422 2 22.7188 2V0C16.412 0 11.0013 2.24071 6.54289 6.69914L7.95711 8.11336ZM22.7188 2C28.4947 2 33.3396 4.02936 37.3155 8.10457L38.747 6.70793C34.3895 2.24147 29.0261 0 22.7188 0V2ZM37.3241 8.11336C41.298 12.0872 43.2812 16.9348 43.2812 22.7188H45.2812C45.2812 16.4194 43.0978 11.0586 38.7384 6.69914L37.3241 8.11336ZM43.2812 22.7188C43.2812 24.7527 42.7957 27.1317 41.781 29.8714L43.6565 30.5661C44.7251 27.6808 45.2812 25.0598 45.2812 22.7188H43.2812ZM41.7854 29.8598C40.7692 32.502 39.618 34.5887 38.3489 36.1507L39.9011 37.4118C41.3404 35.6405 42.585 33.3522 43.6521 30.5777L41.7854 29.8598ZM38.4179 37.4884L39.3554 38.4259L40.7696 37.0116L39.8321 36.0741L38.4179 37.4884ZM40.0625 38.7188H42.7188V36.7188H40.0625V38.7188Z" fill="white"/>
</svg>
