<svg width="24" height="30" viewBox="0 0 24 30" fill="none" xmlns="http://www.w3.org/2000/svg">
<path d="M2 8.94154V26.0104C2 27.1091 2.89068 27.9998 3.98939 27.9998C5.0881 27.9998 5.97878 27.1091 5.97878 26.0104V8.94154C5.97878 7.84283 5.0881 6.95215 3.98939 6.95215C2.89068 6.95215 2 7.84283 2 8.94154Z" stroke="white" stroke-width="3"/>
<path d="M9.95752 10.1798V26.0106C9.95752 27.1093 10.8482 28 11.9469 28C13.0456 28 13.9363 27.1093 13.9363 26.0106V10.1798C13.9363 9.08111 13.0456 8.19043 11.9469 8.19043C10.8482 8.19043 9.95752 9.08111 9.95752 10.1798Z" stroke="white" stroke-width="3"/>
<path d="M17.9152 3.98939V26.0106C17.9152 27.1093 18.8058 28 19.9046 28C21.0033 28 21.8939 27.1093 21.8939 26.0106V3.98939C21.8939 2.89068 21.0033 2 19.9046 2C18.8058 2 17.9152 2.89068 17.9152 3.98939Z" stroke="white" stroke-width="3"/>
</svg>
