<svg width="82" height="82" viewBox="0 0 82 82" fill="none" xmlns="http://www.w3.org/2000/svg">
<path d="M1 18.2383V79.0001C1 80.1047 1.89543 81.0001 3 81.0001H15C16.1046 81.0001 17 80.1047 17 79.0001V18.2383C17 17.1337 16.1046 16.2383 15 16.2383H3C1.89543 16.2383 1 17.1337 1 18.2383Z" stroke="#C299FC"/>
<path d="M33 22.0475V78.9998C33 80.1044 33.8954 80.9998 35 80.9998H47C48.1046 80.9998 49 80.1044 49 78.9998V22.0475C49 20.9429 48.1045 20.0475 47 20.0475H35C33.8954 20.0475 33 20.9429 33 22.0475Z" stroke="#C299FC"/>
<path d="M65 3V79C65 80.1045 65.8954 81 67 81H79C80.1045 81 81 80.1045 81 79V3C81 1.89543 80.1045 1 79 1H67C65.8954 1 65 1.89543 65 3Z" stroke="#C299FC"/>
</svg>
