<svg width="22" height="28" viewBox="0 0 22 28" fill="none" xmlns="http://www.w3.org/2000/svg">
<path d="M1.37671 7.94179V25.0106C1.37671 26.1093 2.26739 27 3.3661 27C4.46481 27 5.35549 26.1093 5.35549 25.0106V7.94178C5.35549 6.84307 4.46481 5.95239 3.3661 5.95239C2.26739 5.95239 1.37671 6.84307 1.37671 7.94179Z" stroke="white"/>
<path d="M9.33423 9.17982V25.0106C9.33423 26.1093 10.2249 27 11.3236 27C12.4223 27 13.313 26.1093 13.313 25.0106V9.17982C13.313 8.08111 12.4223 7.19043 11.3236 7.19043C10.2249 7.19043 9.33423 8.08111 9.33423 9.17982Z" stroke="white"/>
<path d="M17.292 2.98939V25.0106C17.292 26.1093 18.1827 27 19.2814 27C20.3801 27 21.2708 26.1093 21.2708 25.0106V2.98939C21.2708 1.89068 20.3801 1 19.2814 1C18.1827 1 17.292 1.89068 17.292 2.98939Z" stroke="white"/>
</svg>
