<svg width="85" height="85" viewBox="0 0 85 85" fill="none" xmlns="http://www.w3.org/2000/svg">
<path d="M15.7258 35.4934H2.33871C1.53548 35.4934 1 36.0324 1 36.8408V82.6525C1 83.4609 1.53548 83.9999 2.33871 83.9999H15.7258C16.529 83.9999 17.0645 83.4609 17.0645 82.6525V36.8408C17.0645 36.0324 16.529 35.4934 15.7258 35.4934Z" fill="#181825" stroke="#C299FC"/>
<path d="M74.629 32.7987H54.5483V20.6721C54.5483 12.8571 49.8628 3.69481 41.0273 1.13474C40.6257 1 40.2241 1 39.8225 1C37.5467 1 35.8064 2.75162 35.8064 5.04221V20.2679L19.7418 41.0179V76.724L26.837 80.2273C31.6563 82.6526 37.1451 84 42.4999 84H69.2741C74.4951 84 79.0467 80.0925 79.9838 74.7029L84 42.3653V42.2305C84 36.9757 79.85 32.7987 74.629 32.7987Z" fill="#181825" stroke="#C299FC"/>
</svg>
