<svg width="22" height="21" viewBox="0 0 22 21" fill="none" xmlns="http://www.w3.org/2000/svg">
<path d="M3.95652 5.8336H3C1.89543 5.8336 1 6.72903 1 7.8336V17.9C1 19.0046 1.89543 19.9 3 19.9H19C20.1046 19.9 21 19.0046 21 17.9V14.4722M3.95652 5.8336H19.087M3.95652 5.8336L13.5217 2.72951M3.95652 5.8336L10.2744 1.40191C11.2597 0.710771 12.6278 1.04009 13.1907 2.1039L13.5217 2.72951M19.087 5.8336V5.8336C20.1435 5.8336 21 6.6901 21 7.74664V11.2614M19.087 5.8336L17.6926 3.13666C17.2429 2.26701 16.2298 1.85068 15.2986 2.15287L13.5217 2.72951M21 11.2614H17.0402C16.1535 11.2614 15.4348 11.9802 15.4348 12.8668V12.8668C15.4348 13.7534 16.1535 14.4722 17.0402 14.4722H21M21 11.2614V14.4722" stroke="white"/>
</svg>
