<svg width="82" height="81" viewBox="0 0 82 81" fill="none" xmlns="http://www.w3.org/2000/svg">
<path d="M10.5 23.166H3C1.89543 23.166 1 24.0615 1 25.166V78C1 79.1046 1.89543 80 3 80H79C80.1046 80 81 79.1046 81 78V58.0695M10.5 23.166H73.3478M10.5 23.166L51.087 10.6242M10.5 23.166L43.6744 1.22195C44.6628 0.568183 45.9996 0.912293 46.5495 1.962L51.087 10.6242M73.3478 23.166H79C80.1046 23.166 81 24.0615 81 25.166V45.0965M73.3478 23.166L65.4311 7.69931C64.9826 6.82307 63.9631 6.40347 63.0278 6.71008L51.087 10.6242M81 45.0965H60.7391C59.6346 45.0965 58.7391 45.992 58.7391 47.0965V56.0695C58.7391 57.1741 59.6346 58.0695 60.7391 58.0695H81M81 45.0965V58.0695" stroke="#C299FC"/>
</svg>
